<?xml version="1.0" standalone="no"?>
<!DOCTYPE svg PUBLIC "-//W3C//DTD SVG 20010904//EN"
 "http://www.w3.org/TR/2001/REC-SVG-20010904/DTD/svg10.dtd">
<svg version="1.0" xmlns="http://www.w3.org/2000/svg"
 width="800.000000pt" height="800.000000pt" viewBox="0 0 800.000000 800.000000"
 preserveAspectRatio="xMidYMid meet">
<metadata>
Created by potrace 1.11, written by Peter Selinger 2001-2013
</metadata>
<g transform="translate(0.000000,800.000000) scale(0.100000,-0.100000)"
fill="#000000" stroke="none">
<path d="M6688 6515 c-2 -2 -48 -6 -103 -9 -55 -4 -111 -8 -125 -10 -14 -3
-49 -7 -78 -10 -89 -10 -127 -17 -322 -53 -154 -28 -462 -121 -630 -190 -420
-172 -758 -424 -950 -712 -58 -87 -124 -232 -144 -316 -43 -182 -14 -378 79
-525 34 -54 143 -166 176 -180 13 -6 38 -18 54 -28 52 -31 194 -77 295 -96 14
-2 36 -7 50 -10 24 -6 62 -11 140 -21 136 -16 268 -22 610 -30 251 -5 300 -14
300 -50 0 -23 -46 -41 -165 -65 -105 -21 -272 -60 -400 -94 -269 -72 -638
-222 -870 -354 -233 -132 -349 -224 -591 -467 -743 -745 -1450 -1211 -1974
-1300 -144 -25 -295 -25 -400 0 -247 58 -423 289 -454 595 -8 73 -9 250 -2
271 3 8 7 41 10 74 12 121 84 369 154 530 69 158 203 410 303 570 10 17 22 37
26 45 4 8 11 20 15 25 4 6 51 75 103 153 515 774 1399 1632 1850 1794 70 25
165 29 212 9 60 -25 89 -131 68 -256 -16 -96 -118 -338 -184 -433 -10 -15 -53
-81 -96 -147 -73 -112 -235 -332 -295 -400 -233 -264 -352 -377 -380 -360 -16
10 -12 27 20 98 30 66 38 111 21 121 -11 7 -91 -44 -144 -92 -127 -115 -259
-244 -342 -336 -25 -28 -146 -177 -187 -231 -139 -185 -211 -379 -178 -482 37
-114 159 -198 272 -187 125 12 387 187 687 459 160 145 465 469 581 619 8 10
26 33 41 50 14 17 43 56 64 86 22 30 42 57 46 60 11 9 163 241 216 330 141
234 244 483 270 645 2 17 8 48 13 70 12 53 5 320 -10 370 -87 302 -266 427
-560 390 -278 -34 -681 -219 -1037 -474 -81 -58 -288 -219 -317 -246 -6 -5
-40 -35 -76 -65 -94 -80 -167 -149 -314 -296 -180 -179 -235 -240 -485 -529
-193 -224 -541 -700 -634 -869 -12 -21 -27 -46 -32 -55 -196 -313 -372 -766
-411 -1056 -3 -22 -7 -46 -10 -54 -6 -19 -17 -163 -18 -231 -2 -381 98 -674
294 -868 118 -116 302 -211 466 -241 33 -6 70 -13 84 -16 89 -19 394 -8 515
19 419 92 860 343 1345 766 127 110 177 158 392 370 l208 205 -7 -45 c-13 -72
-9 -271 5 -325 54 -203 194 -357 425 -465 111 -52 211 -79 367 -100 64 -8 393
-5 459 4 19 3 62 8 95 11 34 3 68 7 76 10 8 2 35 7 60 10 25 3 52 8 60 10 8 2
32 6 52 9 21 3 59 11 85 17 27 6 56 12 66 14 10 2 27 7 37 10 10 3 27 7 37 9
80 16 279 72 305 87 10 5 22 9 28 9 16 0 192 66 300 112 395 169 636 348 792
589 60 90 116 235 133 339 3 19 7 46 10 60 15 82 29 330 18 330 -5 0 -110 -86
-123 -100 -10 -11 -226 -177 -255 -196 -17 -10 -32 -21 -35 -25 -10 -13 -267
-178 -360 -231 -87 -50 -277 -145 -393 -197 -140 -63 -491 -164 -642 -186 -22
-3 -45 -8 -51 -10 -53 -17 -417 -25 -549 -12 -98 9 -220 43 -288 80 -343 182
-105 588 578 984 196 113 415 216 609 285 102 36 318 100 376 112 14 2 70 13
125 24 55 11 118 23 140 26 22 4 65 11 95 16 79 14 110 19 155 25 145 22 249
88 334 214 116 170 110 315 -13 336 -14 3 -38 7 -53 10 -34 7 -297 13 -843 21
-228 3 -435 7 -460 8 -71 5 -221 16 -265 21 -22 3 -60 7 -85 10 -25 2 -56 7
-70 10 -14 3 -38 8 -55 10 -16 3 -59 15 -94 26 -185 59 -209 161 -72 311 112
123 385 298 636 408 28 12 64 28 80 35 117 52 375 137 515 171 34 8 207 43
240 48 123 20 392 27 500 12 52 -7 171 -34 178 -41 3 -2 -70 -61 -177 -144
-74 -56 -129 -112 -195 -196 -87 -112 -87 -112 6 -52 140 91 295 177 478 265
408 194 437 210 451 245 20 47 20 46 20 256 1 208 -6 281 -27 323 -25 48 -100
82 -244 109 -56 10 -623 23 -632 14z"/>
</g>
</svg>
